<?xml version="1.0" standalone="no"?>
<!DOCTYPE svg PUBLIC "-//W3C//DTD SVG 20010904//EN"
 "http://www.w3.org/TR/2001/REC-SVG-20010904/DTD/svg10.dtd">
<svg version="1.0" xmlns="http://www.w3.org/2000/svg"
 width="512.000000pt" height="512.000000pt" viewBox="0 0 512.000000 512.000000"
 preserveAspectRatio="xMidYMid meet">
<metadata>
Created by potrace 1.14, written by Peter Selinger 2001-2017
</metadata>
<g transform="translate(0.000000,512.000000) scale(0.100000,-0.100000)"
fill="#000000" stroke="none">
<path d="M492 5105 c-84 -20 -211 -88 -279 -150 -95 -86 -168 -208 -202 -340
-8 -27 -11 -684 -11 -2060 0 -2011 0 -2021 21 -2095 54 -198 219 -373 413
-440 59 -20 75 -20 2130 -20 2240 0 2101 -3 2212 53 132 67 234 174 303 317
l36 75 3 2090 c2 2314 8 2116 -62 2250 -47 91 -182 221 -276 267 -152 74 28
68 -2216 67 -1611 -1 -2030 -3 -2072 -14z"/>
</g>
</svg>
